<svg viewBox="0 0 96 96" xmlns="http://www.w3.org/2000/svg" xmlns:xlink="http://www.w3.org/1999/xlink" id="Icons_Cherries" overflow="hidden"><path d="M83.24 47.41C81.79 43.18 79.24 40.46 75.65 39.13 73.5415 38.5946 71.3384 38.5502 69.21 39 68.21 39.2 67.45 39.36 66.09 39.62 61.1446 26.4627 49.7204 16.8183 35.92 14.15 35.0731 14.0327 34.2452 14.4667 33.86 15.23 29.39 15.33 23.58 16.28 19 20 10.37 26.67 9.45 39.71 9.45 39.71 9.45 39.71 22.45 42.12 30.93 35.43 34.93 32.35 37.28 27.87 38.68 23.86L38.85 23.38C43.2614 31.4892 44.3891 40.9831 42 49.9L41.87 49.74C39.3845 48.5452 36.5977 48.1237 33.87 48.53L33.45 48.6 33.37 48.6C32.3935 48.7755 31.4359 49.0434 30.51 49.4L30.12 49.56C29.82 49.69 29.52 49.82 29.22 49.97 28.92 50.12 28.59 50.31 28.27 50.5 24.9361 52.5145 22.6575 55.894 22.04 59.74 19 76.08 35.58 81.15 35.58 81.15 35.58 81.15 52.91 82.66 56.08 66.34 56.89 62.12 56.08 58.61 53.72 55.79 52.2184 54.3257 50.3972 53.2302 48.4 52.59 47.49 52.28 46.81 52.07 45.65 51.66 45.6893 51.5895 45.7228 51.516 45.75 51.44 48.8051 40.8028 47.279 29.373 41.54 19.91 50.7318 23.5131 58.0657 30.6955 61.86 39.81 59.0284 40.0109 56.3219 41.0558 54.09 42.81L53.74 43.08 53.67 43.14C52.8855 43.8108 52.1626 44.5504 51.51 45.35L51.25 45.69C51.05 45.96 50.84 46.24 50.65 46.52 50.46 46.8 50.26 47.16 50.07 47.52 49.6755 48.2031 49.3409 48.9191 49.07 49.66L49.33 49.74C51.779 50.548 54.005 51.9179 55.83 53.74L55.91 53.82 55.98 53.9C58.98 57.48 59.98 61.9 58.98 66.9 58.7861 67.8714 58.5323 68.8299 58.22 69.77 64.97 73.06 72.41 71.35 72.41 71.35 72.41 71.35 88.84 63.75 83.24 47.41Z" stroke="#C00000" stroke-width="0.999979" fill="#FFFFFF"/></svg>