<svg width="1047" height="281" xmlns="http://www.w3.org/2000/svg" xmlns:xlink="http://www.w3.org/1999/xlink" overflow="hidden"><defs><clipPath id="clip0"><rect x="74" y="4" width="1047" height="281"/></clipPath></defs><g clip-path="url(#clip0)" transform="translate(-74 -4)"><path d="M225.756 93.6844 210.606 76.9976 231.585 68.7596Z" stroke="#FFFFFF" stroke-width="2" stroke-miterlimit="8" fill-rule="evenodd"/><path d="M215.41 133.696 200.259 117.009 221.238 108.771Z" stroke="#FFFFFF" stroke-width="2" stroke-miterlimit="8" fill-rule="evenodd"/><path d="M207.41 169.696 192.259 153.009 213.238 144.771Z" stroke="#FFFFFF" stroke-width="2" stroke-miterlimit="8" fill-rule="evenodd"/><path d="M248.198 125.372C252.612 127.076 257.732 129.844 259.838 132.236L266.154 139.411C268.26 141.803 270.849 145.196 271.469 147.069 271.538 146.993 269.805 150.726 269.874 150.65L266.167 144.601 261.44 154.975C260.449 156.238 260.584 153.82 260.218 152.179 259.853 150.538 262.352 147.038 259.245 145.13 256.249 140.805 245.164 143.08 241.574 140.73 237.984 138.381 236.6 133.593 237.704 131.033 238.808 128.473 243.784 123.669 248.198 125.372Z" stroke="#FFFFFF" stroke-width="2" stroke-miterlimit="8" fill-rule="evenodd"/><path d="M100.43 45.9984C103.021 46.1492 107.255 48.2004 109.64 50.2166 112.025 52.2328 114.907 57.2783 114.738 58.0952 114.568 58.9122 111.064 55.9626 108.623 55.1184 106.182 54.2743 102.584 54.0932 100.093 53.0304L93.677 48.7414C98.0194 47.394 97.8386 45.8478 100.43 45.9984ZM38.4161 0.177218C37.0639-0.00451444 35.8322-0.0498688 34.7394 0.0565879 17.2551 1.76084-18.9655 52.3329 12.2564 58.6984L101.356 76.8635 100.65 79.7531 99.6229 84.4578 91.6266 85.8413C84.3649 87.1826 76.3361 88.6449 69.0539 88.8811 52.4087 89.4209 19.7488 81.1377 12.7441 87.3727 5.73921 93.6076 11.2691 123.3 27.0256 126.29 38.8427 128.533 70.0547 119.564 90.94 111.975L94.7492 110.514 91.8838 128.201C88.7242 148.914 85.7152 172.605 84.0192 194.517L83.7512 199.181 81.5766 201.476C74.3864 209.817 45.2455 245.93 50.9983 252.89 51.7175 253.761 52.6647 254.724 53.7861 255.727L56.723 258.085 53.6277 258.036 40.8471 262.117 57.4607 268.079 62.2005 280.962 74.3269 266.418 75.348 266.703 88.1555 278.934 84.2093 264.499 84.3029 264.436C87.8979 260.266 90.8374 247.75 92.6379 234.836L93.7504 225.344 116.443 226.12 116.026 227.638C112.165 243.002 109.328 261.364 111.819 267.78L113.155 269.576 104.941 282.224 121.733 274.045 129.048 292.052 137.483 281.222 155.123 280.596 144.189 272.821 139.142 271.297 143.491 269.781C144.884 269.21 146.099 268.62 147.068 268.04 151.911 265.143 147.719 246.955 142.921 231.215L140.523 223.726 141.631 223.698C155.796 223.034 163.501 222.581 176.54 219.128 189.579 215.675 207.451 209.963 219.864 202.978 232.277 195.993 242.623 185.568 251.019 177.218 259.415 168.868 269.824 156.058 270.24 152.88L271.487 143.346C266.8 146.152 248.698 165.974 242.118 169.713L222.376 180.93C215.795 184.668 207.033 187.5 199.964 189.746 192.895 191.991 187.172 193.449 179.961 194.401L152.531 194.542 136.906 192.058 136.139 179.662C133.734 139.743 131.399 96.8074 128.504 78.0091L127.7 70.3795C128.09 63.8732 123.095 54.9517 117.163 48.4736 106.041 36.3271 58.6973 2.90362 38.4161 0.177218Z" stroke="#FFFFFF" stroke-width="2" stroke-miterlimit="8" fill-rule="evenodd" transform="matrix(-0.988079 -0.153946 -0.153946 0.988079 366.444 11.4027)"/><path d="M230.206 124.44C234.62 126.143 239.74 128.912 241.846 131.303L248.162 138.478C250.267 140.87 252.856 144.263 253.476 146.136 253.546 146.06 251.812 149.794 251.882 149.717L248.175 143.668 243.448 154.043C242.457 155.306 242.592 152.887 242.226 151.246 241.86 149.605 244.36 146.106 241.253 144.198 238.256 139.872 227.172 142.147 223.582 139.797 219.992 137.448 218.608 132.66 219.712 130.1 220.816 127.54 225.792 122.736 230.206 124.44Z" stroke="#FFFFFF" stroke-width="2" stroke-miterlimit="8" fill-rule="evenodd"/><path d="M727.101 209.296C726.142 211.713 724.642 215.671 722.601 221.171 721.476 224.338 720.142 228.65 718.601 234.109 719.851 234.109 722.684 233.859 727.101 233.359 729.767 232.984 732.663 232.338 735.788 231.421 735.08 229.213 733.83 225.629 732.038 220.671 730.955 217.921 729.309 214.129 727.101 209.296ZM584.101 209.296C583.142 211.713 581.642 215.671 579.601 221.171 578.476 224.338 577.142 228.65 575.601 234.109 576.851 234.109 579.684 233.859 584.101 233.359 586.767 232.984 589.663 232.338 592.788 231.421 592.08 229.213 590.83 225.629 589.038 220.671 587.955 217.921 586.309 214.129 584.101 209.296ZM506.976 195.484 506.101 234.671C511.434 234.338 515.788 232.609 519.163 229.484 523.413 225.609 525.538 219.9 525.538 212.359 525.538 206.234 523.559 201.713 519.601 198.796 516.309 196.379 512.101 195.275 506.976 195.484ZM909.101 195.234 908.726 216.609C912.184 216.609 915.267 215.838 917.976 214.296 921.559 212.296 923.351 209.317 923.351 205.359 923.351 201.4 921.684 198.567 918.351 196.859 915.892 195.609 912.809 195.067 909.101 195.234ZM954.288 155.921 994.601 155.921C994.392 161.421 994.142 170.379 993.851 182.796 993.726 189.713 993.767 199.525 993.976 212.234 994.017 221.9 994.851 228.421 996.476 231.796 998.184 235.379 1001.6 237.171 1006.73 237.171 1008.18 237.171 1009.81 236.754 1011.6 235.921 1011.6 227.338 1011.35 213.692 1010.85 194.984 1010.43 185.609 1009.66 172.588 1008.54 155.921L1039.41 155.921 1037.98 196.359C1037.56 207.9 1037.35 225.359 1037.35 248.734 1026.68 252.567 1015.81 254.484 1004.73 254.484 991.059 254.484 980.663 251.754 973.538 246.296 967.497 241.671 963.226 234.463 960.726 224.671 959.267 219.046 957.892 208.754 956.601 193.796 955.351 179.963 954.58 167.338 954.288 155.921ZM777.288 155.921 817.601 155.921C817.392 161.421 817.142 170.379 816.851 182.796 816.726 189.713 816.767 199.525 816.976 212.234 817.017 221.9 817.851 228.421 819.476 231.796 821.184 235.379 824.601 237.171 829.726 237.171 831.184 237.171 832.809 236.754 834.601 235.921 834.601 227.338 834.351 213.692 833.851 194.984 833.434 185.609 832.663 172.588 831.538 155.921L862.413 155.921 860.976 196.359C860.559 207.9 860.351 225.359 860.351 248.734 849.684 252.567 838.809 254.484 827.726 254.484 814.059 254.484 803.663 251.754 796.538 246.296 790.497 241.671 786.226 234.463 783.726 224.671 782.267 219.046 780.892 208.754 779.601 193.796 778.351 179.963 777.58 167.338 777.288 155.921ZM716.163 155.921 753.726 155.921C754.892 162.463 758.08 177.692 763.288 201.609 766.163 214.109 770.142 230.879 775.226 251.921L741.038 251.921 738.726 243.609C737.767 243.984 735.372 245.254 731.538 247.421 729.08 249.004 726.351 251.109 723.351 253.734L719.788 246.171C719.08 244.671 718.059 242.567 716.726 239.859L713.351 251.921 695.226 251.921C697.892 241.629 702.017 224.65 707.601 200.984 711.017 185.15 713.872 170.129 716.163 155.921ZM573.163 155.921 610.726 155.921C611.892 162.463 615.08 177.692 620.288 201.609 623.163 214.109 627.142 230.879 632.226 251.921L598.038 251.921 595.726 243.609C594.767 243.984 592.372 245.254 588.538 247.421 586.08 249.004 583.351 251.109 580.351 253.734L576.788 246.171C576.08 244.671 575.059 242.567 573.726 239.859L570.351 251.921 552.226 251.921C554.892 241.629 559.017 224.65 564.601 200.984 568.017 185.15 570.872 170.129 573.163 155.921ZM383.788 155.921 415.163 155.921 438.413 177.921C438.413 172.879 438.33 168.921 438.163 166.046 438.038 163.504 437.788 160.129 437.413 155.921L460.601 155.921C460.017 164.338 459.205 179.025 458.163 199.984 457.538 215.4 457.017 233.129 456.601 253.171 451.142 248.879 442.83 242.484 431.663 233.984 426.83 230.609 419.622 225.546 410.038 218.796L409.413 251.921 389.288 251.921C388.955 243.463 388.184 227.504 386.976 204.046 385.934 185.046 384.872 169.004 383.788 155.921ZM293.288 155.921 333.601 155.921C333.392 161.421 333.142 170.379 332.851 182.796 332.726 189.713 332.767 199.525 332.976 212.234 333.017 221.9 333.851 228.421 335.476 231.796 337.184 235.379 340.601 237.171 345.726 237.171 347.184 237.171 348.809 236.754 350.601 235.921 350.601 227.338 350.351 213.692 349.851 194.984 349.434 185.609 348.663 172.588 347.538 155.921L378.413 155.921 376.976 196.359C376.559 207.9 376.351 225.359 376.351 248.734 365.684 252.567 354.809 254.484 343.726 254.484 330.059 254.484 319.663 251.754 312.538 246.296 306.497 241.671 302.226 234.463 299.726 224.671 298.267 219.046 296.892 208.754 295.601 193.796 294.351 179.963 293.58 167.338 293.288 155.921ZM494.101 154.234C511.642 154.234 525.372 158.317 535.288 166.484 545.872 175.234 551.163 187.963 551.163 204.671 551.163 219.713 546.497 231.546 537.163 240.171 527.538 249.129 513.976 253.609 496.476 253.609 485.226 253.609 476.538 253.046 470.413 251.921L468.726 205.484C468.184 193.567 467.205 177.129 465.788 156.171 474.83 154.879 484.267 154.234 494.101 154.234ZM899.163 154.109C934.205 154.109 951.726 166.692 951.726 191.859 951.726 199.525 949.58 206.317 945.288 212.234 941.497 217.4 936.747 221.109 931.038 223.359 932.247 225.234 935.226 229.171 939.976 235.171 942.351 237.921 945.976 241.546 950.851 246.046 948.892 246.754 944.58 248.546 937.913 251.421 933.247 253.546 928.851 255.629 924.726 257.671 923.517 256.171 920.83 252.296 916.663 246.046 914.747 242.879 911.934 237.546 908.226 230.046L908.101 230.046 907.476 251.921 872.288 251.921C871.83 242.838 871.184 227.859 870.351 206.984 869.976 194.692 869.122 177.671 867.788 155.921 879.247 154.713 889.705 154.109 899.163 154.109ZM1081.66 153.359C1087.83 153.359 1094.75 154.254 1102.41 156.046L1104.29 195.234C1101.2 194.525 1098.87 194.171 1097.29 194.171 1095.33 194.171 1093.54 194.838 1091.91 196.171 1089.95 197.796 1088.98 199.9 1088.98 202.484 1088.98 204.484 1090.77 208.338 1094.35 214.046 1097.93 219.754 1099.73 225.004 1099.73 229.796 1099.73 236.754 1097.08 242.463 1091.79 246.921 1086.75 251.213 1080.52 253.359 1073.1 253.359 1066.27 253.359 1061.23 252.879 1057.98 251.921 1057.6 250.004 1056.95 246.879 1056.04 242.546 1055.45 240.213 1054.64 237.109 1053.6 233.234 1058.18 234.359 1061.27 234.921 1062.85 234.921 1069.06 234.921 1072.16 232.567 1072.16 227.859 1072.16 224.442 1070.91 221.379 1068.41 218.671 1064.33 215.088 1060.25 211.484 1056.16 207.859 1048.25 200.859 1044.29 192.546 1044.29 182.921 1044.29 172.879 1048.04 165.275 1055.54 160.109 1062.08 155.609 1070.79 153.359 1081.66 153.359ZM671.663 153.359C677.83 153.359 684.747 154.254 692.413 156.046L694.288 195.234C691.205 194.525 688.872 194.171 687.288 194.171 685.33 194.171 683.538 194.838 681.913 196.171 679.955 197.796 678.976 199.9 678.976 202.484 678.976 204.484 680.767 208.338 684.351 214.046 687.934 219.754 689.726 225.004 689.726 229.796 689.726 236.754 687.08 242.463 681.788 246.921 676.747 251.213 670.517 253.359 663.101 253.359 656.267 253.359 651.226 252.879 647.976 251.921 647.601 250.004 646.955 246.879 646.038 242.546 645.455 240.213 644.642 237.109 643.601 233.234 648.184 234.359 651.267 234.921 652.851 234.921 659.059 234.921 662.163 232.567 662.163 227.859 662.163 224.442 660.913 221.379 658.413 218.671 654.33 215.088 650.247 211.484 646.163 207.859 638.247 200.859 634.288 192.546 634.288 182.921 634.288 172.879 638.038 165.275 645.538 160.109 652.08 155.609 660.788 153.359 671.663 153.359Z" stroke="#FFFFFF" stroke-width="2" stroke-linejoin="round" stroke-miterlimit="10" fill-rule="evenodd"/><text fill="#000000" fill-opacity="0" font-family="Arial,Arial_MSFontService,sans-serif" font-size="104.312" x="293.288" y="244.632">undasaurus</text></g></svg>