<?xml version="1.0" encoding="utf-8"?>
<!-- Generator: Adobe Illustrator 14.0.0, SVG Export Plug-In . SVG Version: 6.00 Build 43363)  -->
<!DOCTYPE svg PUBLIC "-//W3C//DTD SVG 1.1//EN" "http://www.w3.org/Graphics/SVG/1.1/DTD/svg11.dtd">
<svg version="1.1" id="Layer_1" xmlns="http://www.w3.org/2000/svg" xmlns:xlink="http://www.w3.org/1999/xlink" x="0px" y="0px"
	 width="91px" height="90px" viewBox="0 0 91 90" enable-background="new 0 0 91 90" xml:space="preserve">
<path fill="#cf2d00" d="M59.334,59.401L51.4,51.466c1.673-2.222,2.677-4.977,2.677-7.973c0-7.336-5.948-13.284-13.284-13.284
	c-7.337,0-13.284,5.948-13.284,13.284s5.947,13.284,13.284,13.284c2.996,0,5.752-1.004,7.974-2.678l7.935,7.935
	c0.363,0.364,0.84,0.546,1.316,0.546s0.953-0.182,1.316-0.546C60.062,61.307,60.062,60.129,59.334,59.401z M31.233,43.493
	c0-5.271,4.289-9.56,9.56-9.56c5.271,0,9.56,4.289,9.56,9.56s-4.288,9.56-9.56,9.56C35.522,53.053,31.233,48.764,31.233,43.493z"/>
</svg>
