<svg width="432" height="263" xmlns="http://www.w3.org/2000/svg" xmlns:xlink="http://www.w3.org/1999/xlink" overflow="hidden"><defs><clipPath id="clip0"><rect x="598" y="168" width="432" height="263"/></clipPath></defs><g clip-path="url(#clip0)" transform="translate(-598 -168)"><path d="M808.386 222.317C789.024 226.059 772.996 239.583 766.058 258.034 764.15 257.67 763.084 257.445 761.681 257.165 758.694 256.534 755.604 256.596 752.645 257.347 747.609 259.212 744.031 263.026 741.996 268.958 734.14 291.873 757.191 302.53 757.191 302.53 757.191 302.53 767.629 304.928 777.1 300.314 776.661 298.996 776.305 297.652 776.033 296.29 774.63 289.278 776.033 283.08 780.242 278.06L780.34 277.947 780.453 277.835C783.013 275.28 786.136 273.359 789.572 272.226L789.937 272.114C789.557 271.075 789.087 270.071 788.534 269.113 788.267 268.608 787.987 268.103 787.72 267.71 787.454 267.318 787.159 266.925 786.878 266.546L786.514 266.07C785.598 264.948 784.584 263.911 783.483 262.97L783.385 262.886 782.894 262.508C779.763 260.048 775.965 258.582 771.993 258.301 777.316 245.519 787.605 235.447 800.502 230.394 792.45 243.665 790.309 259.693 794.595 274.61 794.633 274.716 794.68 274.819 794.735 274.918 793.108 275.493 792.154 275.788 790.877 276.223 788.075 277.12 785.52 278.656 783.413 280.71 780.102 284.665 778.966 289.587 780.102 295.505 784.549 318.391 808.863 316.273 808.863 316.273 808.863 316.273 832.125 309.163 827.86 286.249 826.994 280.856 823.797 276.117 819.119 273.292 818.67 273.025 818.207 272.759 817.786 272.548 817.366 272.338 816.945 272.156 816.524 271.973L815.977 271.749C814.678 271.249 813.334 270.873 811.964 270.627L811.852 270.627 811.263 270.529C807.436 269.959 803.526 270.55 800.039 272.226L799.856 272.45C796.504 259.946 798.086 246.632 804.276 235.26L804.514 235.934C806.478 241.557 809.775 247.839 815.387 252.158 827.285 261.54 845.524 258.16 845.524 258.16 845.524 258.16 844.233 239.874 832.125 230.521 825.699 225.304 817.548 223.972 811.277 223.831 810.736 222.761 809.575 222.152 808.386 222.317ZM756.227 169 770.788 176.762 788.261 174.822 799.91 169.97 818.354 177.732 821.388 182.399 824.178 180.643 836.797 173.851 841.651 179.673 842.622 186.465 847.475 193.257 858.153 186.465 866.89 191.316 867.86 196.167 868.831 198.302 874.655 193.256 874.655 182.584 884.363 174.822 894.07 176.762 902.806 183.554 904.748 192.286 905.216 194.394 917.367 190.346 927.074 199.078 926.104 207.811 936.781 204.9 945.518 202.959 952.313 206.84 956.196 213.632 957.652 216.543 966.874 216.543 982.405 224.305 996.966 237.888 997.239 238.525 998.908 238.859 1005.7 241.77 1007.64 242.74 1008.61 255.353 1007.64 257.294 1006.03 259.364 1011.53 277.669 1022.2 283.491 1029 296.104 1018.32 309.688 994.054 313.419 994.054 316.48 980.464 322.301 970.757 323.271 963.646 318.059 956.196 326.182 956.196 332.974 939.694 337.825 923.191 334.914 926.104 348.498 909.601 356.26 879.509 331.033 875.626 336.855 872.714 348.498 866.89 349.468 854.27 347.528 851.358 345.587 840.68 351.409 829.031 349.468C820.878 344.375 823.424 346.775 820.295 343.647L813.5 355.29 806.705 350.439 804.763 342.676 800.172 339.398 800.289 341.335C800.312 354.744 796.603 375.544 797.968 386.338 799.106 395.333 805.9 403.002 809.255 408.87L810.053 410.595 1004.41 410.595C1006.2 410.595 1007.64 412.043 1007.64 413.829L1007.64 426.766C1007.64 428.552 1006.2 430 1004.41 430L626.474 430C624.687 430 623.239 428.552 623.239 426.766L623.239 413.829C623.239 412.043 624.687 410.595 626.474 410.595L764.517 410.595 764.518 406.934C765.707 393.251 773.306 371.906 774.671 361.112 775.581 353.915 775.086 347.811 774.883 342.798L774.981 337.734 774.671 337.825 751.374 356.26 749.432 370.814 730.018 374.695 717.399 363.052 709.633 344.617 690.218 339.766 670.804 338.795 668.041 337.349 655.272 341.706 647.507 337.825 632.946 336.855 628.092 333.944 626.151 330.063 623.239 325.212 625.18 316.48 630.034 315.509 634.887 309.688 631.004 306.777 627.122 303.866 626.151 299.985 627.826 290.779 627.122 290.282 618.385 291.253 606.736 291.253 598 284.461 601.883 274.758 601.883 267.966 599.941 260.204 606.736 249.532 610.619 237.888 610.619 226.245 620.327 221.394 627.122 221.394 627.122 216.543 636.829 213.632 640.712 216.543 641.682 211.692 642.653 204.9 649.448 207.811 650.702 208.281 651.39 203.929 653.331 196.167 661.097 193.256 680.317 202.062 688.277 199.078 687.306 192.286 687.306 186.465 697.013 183.554 705.75 185.495 707.691 180.643 714.486 180.643 717.245 181.869 717.399 180.643 737.784 171.911Z" fill="#409A00" fill-rule="evenodd"/></g></svg>