<svg width="624" height="153" xmlns="http://www.w3.org/2000/svg" xmlns:xlink="http://www.w3.org/1999/xlink" overflow="hidden"><defs><clipPath id="clip0"><rect x="276" y="431" width="624" height="153"/></clipPath><clipPath id="clip1"><rect x="498" y="437" width="66" height="66"/></clipPath><clipPath id="clip2"><rect x="498" y="437" width="66" height="66"/></clipPath><clipPath id="clip3"><rect x="498" y="437" width="66" height="66"/></clipPath></defs><g clip-path="url(#clip0)" transform="translate(-276 -431)"><path d="M451.114 505.895C446.543 505.895 442.735 507.685 439.688 511.265 436.755 514.693 435.289 518.73 435.289 523.376 435.289 527.984 436.755 531.984 439.688 535.373 442.735 538.915 446.543 540.686 451.114 540.686 455.57 540.686 459.302 538.877 462.311 535.259 465.129 531.869 466.539 527.908 466.539 523.376 466.539 518.692 465.148 514.673 462.368 511.322 459.436 507.704 455.684 505.895 451.114 505.895ZM858.2 504.981C854.696 504.981 851.583 506.39 848.86 509.208 846.136 512.026 844.775 515.188 844.775 518.692 844.775 519.491 845.46 519.891 846.832 519.891 852.468 519.891 859.209 519.32 867.055 518.177 869.264 517.873 870.369 517.492 870.369 517.035 870.369 513.874 869.121 511.074 866.627 508.637 864.132 506.199 861.323 504.981 858.2 504.981ZM802.2 504.981C798.696 504.981 795.583 506.39 792.86 509.208 790.136 512.026 788.775 515.188 788.775 518.692 788.775 519.491 789.46 519.891 790.831 519.891 796.468 519.891 803.209 519.32 811.055 518.177 813.264 517.873 814.369 517.492 814.369 517.035 814.369 513.874 813.121 511.074 810.627 508.637 808.132 506.199 805.323 504.981 802.2 504.981ZM593.235 497.497C594.454 497.497 596.253 497.573 598.634 497.725 601.014 497.878 602.813 497.954 604.032 497.954 604.642 497.954 604.946 498.354 604.946 499.153 604.946 500.22 604.889 501.819 604.775 503.952 604.661 506.085 604.604 507.685 604.604 508.751 604.604 513.398 604.756 516.863 605.061 519.149 605.289 520.596 607.365 524.195 611.288 529.946 615.21 535.697 617.629 538.572 618.543 538.572 619.19 538.572 621.247 535.745 624.713 530.089 628.179 524.433 630.026 520.939 630.254 519.606 630.559 517.701 630.711 514.235 630.711 509.208 630.711 508.104 630.597 506.475 630.369 504.324 630.14 502.172 630.026 500.563 630.026 499.496 630.026 498.544 630.331 498.068 630.94 498.068 632.159 498.068 633.996 497.982 636.453 497.811 638.909 497.64 640.747 497.554 641.966 497.554 643.108 497.554 643.68 502.181 643.68 511.436 643.68 517.873 643.489 521.757 643.108 523.09 642.613 524.804 637.9 532.279 628.969 545.514 620.038 558.748 614.734 566.147 613.059 567.708 611.535 569.079 606.622 569.765 598.319 569.765 597.329 569.765 596.691 569.66 596.406 569.451 596.12 569.241 595.472 567.86 594.463 565.309 593.454 562.757 592.949 561.234 592.949 560.738 592.949 559.901 593.958 559.482 595.977 559.482 600.243 559.482 603.385 558.872 605.403 557.653 606.089 557.234 607.127 555.921 608.517 553.712 609.907 551.503 610.602 550.017 610.602 549.255 610.602 548.227 607.841 544.209 602.318 537.201 596.491 529.775 593.235 525.071 592.549 523.09 592.016 521.529 591.75 517.797 591.75 511.893 591.75 510.446 591.769 508.266 591.807 505.352 591.845 502.438 591.864 500.239 591.864 498.754 591.864 497.916 592.321 497.497 593.235 497.497ZM530.206 497.268C530.891 497.268 531.948 497.363 533.376 497.554 534.804 497.744 535.88 497.839 536.604 497.839 537.328 497.839 538.404 497.744 539.832 497.554 541.26 497.363 542.336 497.268 543.06 497.268 543.707 497.268 544.031 497.63 544.031 498.354 544.031 501.286 543.85 505.714 543.488 511.636 543.126 517.558 542.945 522.005 542.945 524.976 542.945 527.756 543.002 531.917 543.117 537.458 543.231 543 543.288 547.142 543.288 549.884 543.288 550.684 542.945 551.084 542.26 551.084L531.12 551.084C530.32 551.084 529.92 550.303 529.92 548.741 529.92 546.113 529.987 542.162 530.12 536.887 530.253 531.612 530.32 527.642 530.32 524.976 530.32 522.005 530.101 517.549 529.663 511.608 529.225 505.666 529.006 501.21 529.006 498.239 529.006 497.592 529.406 497.268 530.206 497.268ZM750.632 495.669C751.241 495.669 751.641 496.792 751.832 499.039 752.022 501.286 752.365 502.41 752.86 502.41 752.936 502.41 753.031 502.372 753.146 502.296 754.707 501.305 756.269 500.315 757.83 499.325 759.544 498.297 761.296 497.535 763.086 497.04 764.571 496.583 766.476 496.354 768.799 496.354 771.77 496.354 773.255 496.754 773.255 497.554 773.255 501.743 772.969 505.552 772.398 508.98 772.284 509.856 771.903 510.294 771.255 510.294 770.456 510.294 769.246 510.208 767.628 510.036 766.009 509.865 764.781 509.779 763.943 509.779 759.144 509.779 756.078 511.131 754.745 513.836 753.945 515.473 753.545 518.882 753.545 524.062L753.545 530.346C753.545 532.479 753.631 535.716 753.802 540.058 753.974 544.4 754.06 547.637 754.06 549.77 754.06 550.798 753.622 551.312 752.746 551.312 751.565 551.312 749.775 551.293 747.375 551.255 744.976 551.217 743.186 551.198 742.005 551.198 741.129 551.198 740.691 550.722 740.691 549.77 740.691 546.685 740.739 542.038 740.834 535.83 740.929 529.622 740.977 524.957 740.977 521.834 740.977 512.426 740.101 504.866 738.349 499.153 738.273 498.849 738.235 498.62 738.235 498.468 738.235 498.011 738.482 497.687 738.978 497.497 740.387 497.344 742.367 497.116 744.919 496.811 749.032 496.049 750.937 495.669 750.632 495.669ZM500.632 495.669C501.241 495.669 501.641 496.792 501.832 499.039 502.022 501.286 502.365 502.41 502.86 502.41 502.936 502.41 503.031 502.372 503.146 502.296 504.707 501.305 506.269 500.315 507.83 499.325 509.544 498.297 511.296 497.535 513.086 497.04 514.571 496.583 516.476 496.354 518.799 496.354 521.77 496.354 523.255 496.754 523.255 497.554 523.255 501.743 522.969 505.552 522.398 508.98 522.284 509.856 521.903 510.294 521.255 510.294 520.456 510.294 519.246 510.208 517.628 510.036 516.009 509.865 514.781 509.779 513.943 509.779 509.144 509.779 506.078 511.131 504.745 513.836 503.945 515.473 503.545 518.882 503.545 524.062L503.545 530.346C503.545 532.479 503.631 535.716 503.802 540.058 503.974 544.4 504.06 547.637 504.06 549.77 504.06 550.798 503.622 551.312 502.746 551.312 501.565 551.312 499.775 551.293 497.375 551.255 494.976 551.217 493.186 551.198 492.005 551.198 491.129 551.198 490.691 550.722 490.691 549.77 490.691 546.685 490.739 542.038 490.834 535.83 490.929 529.622 490.977 524.957 490.977 521.834 490.977 512.426 490.101 504.866 488.349 499.153 488.273 498.849 488.235 498.62 488.235 498.468 488.235 498.011 488.482 497.687 488.978 497.497 490.387 497.344 492.367 497.116 494.919 496.811 499.032 496.049 500.936 495.669 500.632 495.669ZM449.457 494.469C455.284 494.469 460.369 496.487 464.71 500.525 465.358 501.286 466.367 502.391 467.738 503.838 467.853 503.952 467.967 504.009 468.081 504.009 468.31 504.009 468.633 502.81 469.052 500.41 469.471 498.011 470.004 496.811 470.652 496.811 471.68 496.811 473.604 497.097 476.422 497.668 479.545 498.354 481.106 498.963 481.106 499.496 481.106 499.649 481.049 499.991 480.935 500.525 479.45 509.246 478.707 516.768 478.707 523.09 478.707 523.471 479.183 532.022 480.135 548.741L480.192 549.541C480.23 550.646 479.726 551.198 478.678 551.198 477.631 551.198 476.051 551.322 473.937 551.569 471.823 551.817 470.252 551.941 469.224 551.941 468.5 551.941 467.948 550.608 467.567 547.942 467.186 545.276 466.824 543.943 466.481 543.943 466.253 543.943 465.225 544.685 463.396 546.171 461.149 547.999 459.055 549.389 457.112 550.341 454.104 551.864 451.095 552.626 448.086 552.626 440.697 552.626 434.47 549.674 429.405 543.771 424.606 538.134 422.207 531.565 422.207 524.062 422.207 515.607 424.625 508.618 429.462 503.095 434.527 497.344 441.192 494.469 449.457 494.469ZM859 494.012C866.16 494.012 872.14 496.64 876.938 501.896 881.623 506.999 883.965 513.207 883.965 520.52 883.965 523.338 882.747 525.223 880.309 526.175 878.671 526.785 866.884 527.908 844.946 529.546 845.441 532.898 847.289 535.754 850.488 538.115 853.535 540.362 856.81 541.486 860.314 541.486 866.332 541.486 871.854 539.544 876.881 535.659 877.491 535.164 878.1 534.669 878.709 534.173 879.014 534.173 879.214 534.212 879.309 534.288 879.405 534.364 880.119 535.687 881.452 538.258 882.785 540.829 883.451 542.21 883.451 542.4 883.451 542.629 883.146 543.067 882.537 543.714 876.938 549.655 869.759 552.626 861 552.626 852.164 552.626 845.118 549.989 839.862 544.714 834.606 539.439 831.978 532.402 831.978 523.605 831.978 515.759 834.492 508.922 839.519 503.095 844.813 497.04 851.307 494.012 859 494.012ZM803 494.012C810.16 494.012 816.14 496.64 820.938 501.896 825.623 506.999 827.965 513.207 827.965 520.52 827.965 523.338 826.747 525.223 824.309 526.175 822.671 526.785 810.884 527.908 788.946 529.546 789.441 532.898 791.289 535.754 794.488 538.115 797.535 540.362 800.81 541.486 804.314 541.486 810.332 541.486 815.854 539.544 820.881 535.659 821.491 535.164 822.1 534.669 822.709 534.173 823.014 534.173 823.214 534.212 823.309 534.288 823.405 534.364 824.119 535.687 825.452 538.258 826.785 540.829 827.451 542.21 827.451 542.4 827.451 542.629 827.146 543.067 826.537 543.714 820.938 549.655 813.759 552.626 805 552.626 796.164 552.626 789.118 549.989 783.862 544.714 778.606 539.439 775.978 532.402 775.978 523.605 775.978 515.759 778.492 508.922 783.519 503.095 788.813 497.04 795.307 494.012 803 494.012ZM558.005 477.616C558.348 477.616 561.928 478.206 568.745 479.387 569.621 479.501 570.059 479.92 570.059 480.644 570.059 482.319 569.935 484.833 569.688 488.185 569.44 491.536 569.316 494.05 569.316 495.726 569.316 496.83 569.831 497.382 570.859 497.382L584.57 497.382C585.217 497.382 585.541 497.611 585.541 498.068 585.541 498.525 585.474 499.258 585.341 500.267 585.208 501.277 585.141 502.029 585.141 502.524 585.141 503.095 585.16 503.971 585.198 505.152 585.236 506.333 585.255 507.209 585.255 507.78 585.255 508.504 584.722 508.865 583.656 508.865 582.132 508.865 579.828 508.761 576.743 508.551 573.658 508.342 571.354 508.237 569.831 508.237 569.526 508.237 569.297 509.322 569.145 511.493 568.955 514.197 568.859 517.987 568.859 522.862L568.859 531.374C568.859 534.65 569.164 536.935 569.773 538.23 570.688 540.21 572.573 541.2 575.429 541.2 576.61 541.2 578.343 540.943 580.628 540.429 582.913 539.915 584.608 539.658 585.712 539.658 586.169 539.658 586.398 540.001 586.398 540.686 586.398 541.524 586.322 542.667 586.169 544.114 585.979 545.904 585.865 547.066 585.827 547.599 585.789 548.284 585.731 548.703 585.655 548.856 585.503 549.122 585.141 549.389 584.57 549.655 581.447 551.141 576.534 551.883 569.831 551.883 560.918 551.883 556.462 547.846 556.462 539.772 556.462 536.535 556.539 531.669 556.691 525.176 556.843 518.682 556.919 513.817 556.919 510.579 556.919 509.018 556.139 508.18 554.577 508.066 553.168 508.066 551.778 508.047 550.407 508.008 549.607 507.818 549.207 506.256 549.207 503.324 549.207 502.219 549.283 501.058 549.436 499.839 549.55 498.925 550.159 498.373 551.264 498.182 552.216 498.182 553.149 498.163 554.063 498.125 555.815 498.049 556.691 497.268 556.691 495.783 556.691 494.259 556.643 491.936 556.548 488.813 556.453 485.69 556.405 483.348 556.405 481.786 556.405 479.006 556.938 477.616 558.005 477.616ZM536.604 475.731C538.737 475.731 540.574 476.397 542.117 477.73 543.659 479.063 544.431 480.777 544.431 482.872 544.431 487.556 541.822 489.899 536.604 489.899 531.31 489.899 528.663 487.556 528.663 482.872 528.663 480.777 529.482 479.044 531.12 477.673 532.643 476.378 534.471 475.731 536.604 475.731ZM733.566 471.566C733.574 471.548 733.583 471.565 733.593 471.617L733.565 471.574ZM731.936 470.589C732.431 470.589 732.817 470.675 733.093 470.846L733.565 471.574 733.543 471.728C733.5 472.264 733.479 474.074 733.479 477.159 733.479 477.654 733.536 478.425 733.65 479.473 733.764 480.52 733.821 481.31 733.821 481.843 733.821 482.834 733.479 483.329 732.793 483.329 731.727 483.329 724.985 483.1 712.569 482.643 712.227 494.259 712.055 503.571 712.055 510.579 712.055 514.959 712.217 521.529 712.541 530.289 712.865 539.048 713.026 545.618 713.026 549.998 713.026 550.798 712.474 551.198 711.37 551.198 710.684 551.198 709.637 551.141 708.228 551.026 706.818 550.912 705.752 550.855 705.028 550.855 704.343 550.855 703.295 550.912 701.886 551.026 700.477 551.141 699.43 551.198 698.744 551.198 697.792 551.198 697.316 550.722 697.316 549.77 697.316 545.428 697.497 538.906 697.859 530.203 698.22 521.5 698.401 514.959 698.401 510.579 698.401 503.8 698.192 494.488 697.773 482.643 687.947 483.253 680.749 483.557 676.178 483.557 675.721 483.557 675.493 483.367 675.493 482.986 675.493 482.3 675.664 481.31 676.007 480.015 676.426 478.339 676.673 477.349 676.75 477.045 676.826 475.712 677.092 473.864 677.549 471.503 677.74 471.008 678.063 470.76 678.521 470.76L679.206 470.818C692.688 471.617 701.582 472.017 705.885 472.017 709.694 472.017 715.921 471.732 724.566 471.16 730.47 470.779 732.926 470.589 731.936 470.589ZM376.974 469.961C377.469 469.961 377.717 470.322 377.717 471.046 377.717 474.626 377.574 480.006 377.288 487.185 377.003 494.364 376.86 499.744 376.86 503.324 376.86 504.2 377.012 504.657 377.317 504.695 379.259 503.057 381.773 501.077 384.858 498.754 388.59 496.43 392.532 495.269 396.684 495.269 403.844 495.269 408.776 497.401 411.48 501.667 413.422 504.79 414.394 509.741 414.394 516.521 414.394 517.701 414.365 519.52 414.308 521.976 414.251 524.433 414.222 526.252 414.222 527.432 414.222 529.87 414.26 533.507 414.336 538.344 414.413 543.181 414.451 546.799 414.451 549.198 414.451 550.608 414.051 551.312 413.251 551.312 412.07 551.312 410.28 551.293 407.881 551.255 405.481 551.217 403.691 551.198 402.511 551.198 401.559 551.198 401.082 550.569 401.082 549.313 401.082 547.484 401.149 544.723 401.282 541.029 401.416 537.335 401.482 534.554 401.482 532.688 401.482 530.936 401.416 528.28 401.282 524.719 401.149 521.158 401.082 518.482 401.082 516.692 401.082 509.837 397.845 506.409 391.371 506.409 389.276 506.409 386.534 507.456 383.144 509.551 379.526 511.798 377.717 513.855 377.717 515.721L377.717 549.655C377.717 550.76 377.317 551.312 376.517 551.312 375.336 551.312 373.565 551.293 371.204 551.255 368.843 551.217 367.072 551.198 365.891 551.198 365.015 551.198 364.577 550.684 364.577 549.655L364.577 522.062C364.577 517.568 364.33 508.008 363.834 493.383 363.758 488.851 363.435 482.148 362.863 473.274 362.787 472.817 362.749 472.512 362.749 472.36 362.749 471.713 362.978 471.313 363.435 471.16 364.082 470.932 366.234 470.818 369.89 470.818 370.69 470.818 371.89 470.675 373.489 470.389 375.089 470.103 376.25 469.961 376.974 469.961ZM329.254 469.275C340.794 469.275 349.726 473.179 356.048 480.986 356.657 481.786 356.962 482.453 356.962 482.986 356.962 483.633 355.953 485.547 353.934 488.727 351.915 491.908 350.697 493.498 350.278 493.498 349.783 493.498 348.621 492.565 346.793 490.698 344.546 488.413 342.432 486.699 340.452 485.557 337.176 483.691 333.558 482.757 329.597 482.757 322.056 482.757 316.191 485.633 312.001 491.384 308.269 496.526 306.403 503 306.403 510.808 306.403 518.615 308.25 525.147 311.944 530.403 316.134 536.306 321.98 539.258 329.483 539.258 333.215 539.258 336.814 538.325 340.28 536.459 342.565 535.24 344.889 533.507 347.25 531.26 349.23 529.394 350.316 528.461 350.506 528.461 350.735 528.461 351.992 529.974 354.277 533.002 356.562 536.03 357.705 537.696 357.705 538.001 357.705 538.458 357.343 539.106 356.619 539.943 349.192 548.551 339.995 552.855 329.026 552.855 317.6 552.855 308.459 548.684 301.604 540.343 295.206 532.574 292.006 522.862 292.006 511.208 292.006 499.553 295.263 489.803 301.775 481.958 308.707 473.503 317.867 469.275 329.254 469.275Z" stroke="#49672C" stroke-linejoin="round" stroke-miterlimit="10" fill="#618635" fill-rule="evenodd"/><text fill="#000000" fill-opacity="0" font-family="Arial,Arial_MSFontService,sans-serif" font-size="100.49" x="292.006" y="557.204">Charity Tree</text><g clip-path="url(#clip1)"><g clip-path="url(#clip2)"><g clip-path="url(#clip3)"><path d="M57.2275 32.5944C56.2306 29.6863 54.4775 27.8162 52.0094 26.9019 50.5598 26.5338 49.0452 26.5033 47.5819 26.8125 46.8944 26.95 46.3719 27.06 45.4369 27.2387 42.0369 18.1931 34.1828 11.5626 24.695 9.72812 24.1128 9.64748 23.5436 9.94586 23.2788 10.4706 20.2056 10.5394 16.2113 11.1925 13.0625 13.75 7.12937 18.3356 6.49687 27.3006 6.49687 27.3006 6.49687 27.3006 15.4344 28.9575 21.2644 24.3581 24.0144 22.2406 25.63 19.1606 26.5925 16.4038L26.7094 16.0737C29.7422 21.6488 30.5175 28.1759 28.875 34.3063L28.7856 34.1963C27.0768 33.3748 25.1609 33.085 23.2856 33.3644L22.9969 33.4125 22.9419 33.4125C22.2705 33.5332 21.6122 33.7173 20.9756 33.9625L20.7075 34.0725C20.5012 34.1619 20.295 34.2513 20.0887 34.3544 19.8825 34.4575 19.6556 34.5881 19.4356 34.7188 17.1436 36.1037 15.577 38.4271 15.1525 41.0713 13.0625 52.305 24.4613 55.7906 24.4613 55.7906 24.4613 55.7906 36.3756 56.8288 38.555 45.6087 39.1119 42.7075 38.555 40.2944 36.9325 38.3556 35.9002 37.3489 34.6481 36.5958 33.275 36.1556 32.6494 35.9425 32.1819 35.7981 31.3844 35.5163 31.4114 35.4678 31.4344 35.4172 31.4531 35.365 33.5535 28.0519 32.5043 20.1939 28.5588 13.6881 34.8781 16.1653 39.9202 21.1032 42.5288 27.3694 40.582 27.5075 38.7213 28.2259 37.1869 29.4319L36.9463 29.6175 36.8981 29.6587C36.3588 30.1199 35.8618 30.6284 35.4131 31.1781L35.2344 31.4119C35.0969 31.5975 34.9525 31.79 34.8219 31.9825 34.6912 32.175 34.5537 32.4225 34.4231 32.67 34.1519 33.1396 33.9219 33.6319 33.7356 34.1413L33.9144 34.1963C35.5981 34.7518 37.1284 35.6936 38.3831 36.9463L38.4381 37.0013 38.4862 37.0563C40.5487 39.5175 41.2362 42.5563 40.5487 45.9938 40.4154 46.6616 40.241 47.3206 40.0263 47.9669 44.6669 50.2287 49.7819 49.0531 49.7819 49.0531 49.7819 49.0531 61.0775 43.8281 57.2275 32.5944Z" fill="#CB2934" transform="matrix(-1 0 0 1 564 437)"/></g></g></g></g></svg>